<svg width="678" height="857" viewBox="0 0 678 857" fill="none" xmlns="http://www.w3.org/2000/svg">
<g filter="url(#filter0_d_20_24)">
<path d="M593 195.5V774.5H33V36H441M593 195.5L441 36M593 195.5H441V36" stroke="#1266CD" stroke-width="32" stroke-linejoin="bevel"/>
<path opacity="0.12" d="M99 120V661.5" stroke="#1266CD" stroke-width="28"/>
<path opacity="0.12" d="M159 291H407" stroke="#1266CD" stroke-width="28"/>
<path opacity="0.12" d="M159 350L510 351" stroke="#1266CD" stroke-width="28"/>
<path opacity="0.12" d="M159 402L510 403" stroke="#1266CD" stroke-width="28"/>
<path opacity="0.12" d="M159 459H344" stroke="#1266CD" stroke-width="28"/>
<path opacity="0.12" d="M356 459H510" stroke="#1266CD" stroke-width="28"/>
<path opacity="0.12" d="M159 514L510 515" stroke="#1266CD" stroke-width="28"/>
<path d="M184.635 657.735V659H160.401V657.735H161.939C163.284 657.735 164.366 657.496 165.187 657.018C165.779 656.699 166.235 656.152 166.554 655.377C166.804 654.83 166.93 653.395 166.93 651.07V620.582C166.93 618.212 166.804 616.731 166.554 616.139C166.303 615.546 165.79 615.034 165.016 614.601C164.264 614.145 163.238 613.917 161.939 613.917H160.401V612.652H184.635V613.917H183.097C181.752 613.917 180.67 614.156 179.85 614.635C179.257 614.954 178.79 615.501 178.448 616.275C178.198 616.822 178.072 618.258 178.072 620.582V651.07C178.072 653.44 178.198 654.921 178.448 655.514C178.722 656.106 179.234 656.63 179.986 657.086C180.761 657.519 181.798 657.735 183.097 657.735H184.635ZM203.707 612.652L226.573 641.397V621.471C226.573 618.691 226.174 616.811 225.377 615.831C224.283 614.509 222.449 613.871 219.874 613.917V612.652H235.187V613.917C233.227 614.168 231.905 614.498 231.222 614.908C230.561 615.296 230.037 615.945 229.649 616.856C229.285 617.745 229.103 619.283 229.103 621.471V660.06H227.94L196.598 621.471V650.934C196.598 653.6 197.201 655.4 198.409 656.334C199.64 657.268 201.041 657.735 202.613 657.735H203.707V659H187.267V657.735C189.819 657.713 191.596 657.188 192.599 656.163C193.601 655.138 194.103 653.395 194.103 650.934V618.224L193.111 616.993C192.132 615.763 191.266 614.954 190.514 614.566C189.762 614.179 188.679 613.963 187.267 613.917V612.652H203.707ZM281.021 612.652V625.196H279.791C279.062 622.302 278.253 620.229 277.364 618.976C276.476 617.7 275.257 616.686 273.707 615.934C272.841 615.523 271.326 615.318 269.161 615.318H265.709V651.07C265.709 653.44 265.834 654.921 266.085 655.514C266.358 656.106 266.871 656.63 267.623 657.086C268.398 657.519 269.446 657.735 270.768 657.735H272.306V659H248.038V657.735H249.576C250.921 657.735 252.003 657.496 252.823 657.018C253.416 656.699 253.883 656.152 254.225 655.377C254.475 654.83 254.601 653.395 254.601 651.07V615.318H251.251C248.129 615.318 245.862 615.979 244.449 617.301C242.467 619.146 241.214 621.778 240.689 625.196H239.391V612.652H281.021ZM302.623 615.318V634.186H303.546C306.485 634.186 308.616 633.263 309.938 631.417C311.259 629.571 312.102 626.848 312.467 623.248H313.766V647.516H312.467C312.193 644.872 311.612 642.708 310.724 641.021C309.858 639.335 308.844 638.207 307.682 637.638C306.52 637.045 304.833 636.749 302.623 636.749V649.806C302.623 652.358 302.726 653.919 302.931 654.488C303.159 655.058 303.569 655.525 304.161 655.89C304.754 656.254 305.711 656.437 307.032 656.437H309.801C314.13 656.437 317.594 655.434 320.191 653.429C322.812 651.424 324.692 648.37 325.831 644.269H327.096L325.011 659H284.952V657.735H286.49C287.835 657.735 288.917 657.496 289.737 657.018C290.33 656.699 290.785 656.152 291.104 655.377C291.355 654.83 291.48 653.395 291.48 651.07V620.582C291.48 618.486 291.424 617.198 291.31 616.72C291.082 615.922 290.66 615.307 290.045 614.874C289.179 614.236 287.994 613.917 286.49 613.917H284.952V612.652H323.746V626.358H322.447C321.786 623.009 320.852 620.605 319.645 619.146C318.46 617.688 316.773 616.617 314.586 615.934C313.31 615.523 310.917 615.318 307.408 615.318H302.623ZM359.361 645.807H342.989L341.041 650.318C340.403 651.822 340.084 653.064 340.084 654.044C340.084 655.343 340.608 656.3 341.656 656.915C342.271 657.28 343.787 657.553 346.202 657.735V659H330.787V657.735C332.451 657.485 333.818 656.801 334.889 655.685C335.96 654.545 337.281 652.21 338.854 648.678L355.431 611.695H356.08L372.794 649.703C374.389 653.303 375.699 655.571 376.725 656.505C377.499 657.211 378.593 657.621 380.006 657.735V659H357.584V657.735H358.507C360.307 657.735 361.572 657.485 362.301 656.983C362.802 656.619 363.053 656.095 363.053 655.411C363.053 655.001 362.984 654.579 362.848 654.146C362.802 653.941 362.46 653.087 361.822 651.583L359.361 645.807ZM358.199 643.277L351.295 627.315L344.186 643.277H358.199Z" fill="#646464" fill-opacity="0.57"/>
</g>
<defs>
<filter id="filter0_d_20_24" x="0" y="0" width="678" height="856.5" filterUnits="userSpaceOnUse" color-interpolation-filters="sRGB">
<feFlood flood-opacity="0" result="BackgroundImageFix"/>
<feColorMatrix in="SourceAlpha" type="matrix" values="0 0 0 0 0 0 0 0 0 0 0 0 0 0 0 0 0 0 127 0" result="hardAlpha"/>
<feOffset dx="26" dy="23"/>
<feGaussianBlur stdDeviation="21.5"/>
<feComposite in2="hardAlpha" operator="out"/>
<feColorMatrix type="matrix" values="0 0 0 0 0 0 0 0 0 0 0 0 0 0 0 0 0 0 0.25 0"/>
<feBlend mode="normal" in2="BackgroundImageFix" result="effect1_dropShadow_20_24"/>
<feBlend mode="normal" in="SourceGraphic" in2="effect1_dropShadow_20_24" result="shape"/>
</filter>
</defs>
</svg>
